{"asset":{"version":"2.0","generator":"THREE.GLTFExporter"},"scenes":[{"nodes":[0]}],"scene":0,"nodes":[{"mesh":0}],"bufferViews":[{"buffer":0,"byteOffset":0,"byteLength":8496,"target":34962,"byteStride":12},{"buffer":0,"byteOffset":8496,"byteLength":1416,"target":34963}],"buffers":[{"byteLength":9912,"uri":"data:application/octet-stream;base64,"}],"accessors":[{"bufferView":0,"componentType":5126,"count":708,"max":[19.05000114440918,0.20000000298023224,-0.34999942779541016],"min":[0.3499999940395355,0.20000000298023224,-8.549999237060547],"type":"VEC3"},{"bufferView":1,"componentType":5123,"count":708,"max":[707],"min":[0],"type":"SCALAR"}],"materials":[{"pbrMetallicRoughness":{"metallicFactor":0,"roughnessFactor":1}}],"meshes":[{"primitives":[{"mode":4,"attributes":{"POSITION":0},"indices":1,"material":0}]}]}