{"asset":{"version":"2.0","generator":"THREE.GLTFExporter"},"scenes":[{"nodes":[0]}],"scene":0,"nodes":[{"mesh":0}],"bufferViews":[{"buffer":0,"byteOffset":0,"byteLength":12636,"target":34962,"byteStride":12},{"buffer":0,"byteOffset":12636,"byteLength":2108,"target":34963}],"buffers":[{"byteLength":14744,"uri":"data:application/octet-stream;base64,"}],"accessors":[{"bufferView":0,"componentType":5126,"count":1053,"max":[19.100000381469727,0.20000000298023224,-0.299999475479126],"min":[0.30000001192092896,0.20000000298023224,-8.649999618530273],"type":"VEC3"},{"bufferView":1,"componentType":5123,"count":1053,"max":[1052],"min":[0],"type":"SCALAR"}],"materials":[{"pbrMetallicRoughness":{"metallicFactor":0,"roughnessFactor":1}}],"meshes":[{"primitives":[{"mode":4,"attributes":{"POSITION":0},"indices":1,"material":0}]}]}