{"asset":{"version":"2.0","generator":"THREE.GLTFExporter"},"scenes":[{"nodes":[0]}],"scene":0,"nodes":[{"mesh":0}],"bufferViews":[{"buffer":0,"byteOffset":0,"byteLength":4068,"target":34962,"byteStride":12},{"buffer":0,"byteOffset":4068,"byteLength":680,"target":34963}],"buffers":[{"byteLength":4748,"uri":"data:application/octet-stream;base64,"}],"accessors":[{"bufferView":0,"componentType":5126,"count":339,"max":[16.200000762939453,0.20000000298023224,6.7220001220703125],"min":[0.20000000298023224,0.20000000298023224,-2.177999973297119],"type":"VEC3"},{"bufferView":1,"componentType":5123,"count":339,"max":[338],"min":[0],"type":"SCALAR"}],"materials":[{"pbrMetallicRoughness":{"metallicFactor":0,"roughnessFactor":1}}],"meshes":[{"primitives":[{"mode":4,"attributes":{"POSITION":0},"indices":1,"material":0}]}]}