{"asset":{"version":"2.0","generator":"THREE.GLTFExporter"},"scenes":[{"nodes":[0]}],"scene":0,"nodes":[{"mesh":0}],"bufferViews":[{"buffer":0,"byteOffset":0,"byteLength":7956,"target":34962,"byteStride":12},{"buffer":0,"byteOffset":7956,"byteLength":1328,"target":34963}],"buffers":[{"byteLength":9284,"uri":"data:application/octet-stream;base64,"}],"accessors":[{"bufferView":0,"componentType":5126,"count":663,"max":[15.90000057220459,0.20000000298023224,6.849999904632568],"min":[0.10000000149011612,0.20000000298023224,-1.7999999523162842],"type":"VEC3"},{"bufferView":1,"componentType":5123,"count":663,"max":[662],"min":[0],"type":"SCALAR"}],"materials":[{"pbrMetallicRoughness":{"metallicFactor":0,"roughnessFactor":1}}],"meshes":[{"primitives":[{"mode":4,"attributes":{"POSITION":0},"indices":1,"material":0}]}]}