{"asset":{"version":"2.0","generator":"THREE.GLTFExporter"},"scenes":[{"nodes":[0]}],"scene":0,"nodes":[{"mesh":0}],"bufferViews":[{"buffer":0,"byteOffset":0,"byteLength":9828,"target":34962,"byteStride":12},{"buffer":0,"byteOffset":9828,"byteLength":1640,"target":34963}],"buffers":[{"byteLength":11468,"uri":"data:application/octet-stream;base64,"}],"accessors":[{"bufferView":0,"componentType":5126,"count":819,"max":[26.450000762939453,0.20000000298023224,6.929999828338623],"min":[0.10000089555978775,0.20000000298023224,-2.9700002670288086],"type":"VEC3"},{"bufferView":1,"componentType":5123,"count":819,"max":[818],"min":[0],"type":"SCALAR"}],"materials":[{"pbrMetallicRoughness":{"metallicFactor":0,"roughnessFactor":1}}],"meshes":[{"primitives":[{"mode":4,"attributes":{"POSITION":0},"indices":1,"material":0}]}]}